<svg xmlns="http://www.w3.org/2000/svg" width="880" height="618" viewBox="0 0 880 618" role="img" aria-label="CalDec Laya accuracy per decision site versus Laya base"><defs><linearGradient id="accent" x1="0" y1="0" x2="1" y2="0"><stop offset="0" stop-color="#3B6CFF"/><stop offset="1" stop-color="#9B5CFF"/></linearGradient></defs><rect width="880" height="618" fill="#FBFAF8"/><text x="24" y="34" font-family="ui-sans-serif,system-ui,-apple-system,'Segoe UI',Helvetica,Arial,sans-serif" font-size="17" font-weight="650" fill="#16171B">Every decision site, Laya base → CalDec Laya</text><text x="24" y="54" font-family="ui-sans-serif,system-ui,-apple-system,'Segoe UI',Helvetica,Arial,sans-serif" font-size="12.5" fill="#56585F">CalDec Laya accuracy on untied test decisions versus Laya base.</text><line x1="236.0" y1="96" x2="236.0" y2="582" stroke="#DEDBD4" stroke-width="1"/><text x="236.0" y="90" font-family="ui-monospace,SFMono-Regular,Menlo,Consolas,monospace" font-size="11" text-anchor="middle" fill="#8A8C94">0.2</text><line x1="376.0" y1="96" x2="376.0" y2="582" stroke="#DEDBD4" stroke-width="1"/><text x="376.0" y="90" font-family="ui-monospace,SFMono-Regular,Menlo,Consolas,monospace" font-size="11" text-anchor="middle" fill="#8A8C94">0.4</text><line x1="516.0" y1="96" x2="516.0" y2="582" stroke="#DEDBD4" stroke-width="1"/><text x="516.0" y="90" font-family="ui-monospace,SFMono-Regular,Menlo,Consolas,monospace" font-size="11" text-anchor="middle" fill="#8A8C94">0.6</text><line x1="656.0" y1="96" x2="656.0" y2="582" stroke="#DEDBD4" stroke-width="1"/><text x="656.0" y="90" font-family="ui-monospace,SFMono-Regular,Menlo,Consolas,monospace" font-size="11" text-anchor="middle" fill="#8A8C94">0.8</text><line x1="796.0" y1="96" x2="796.0" y2="582" stroke="#DEDBD4" stroke-width="1"/><text x="796.0" y="90" font-family="ui-monospace,SFMono-Regular,Menlo,Consolas,monospace" font-size="11" text-anchor="middle" fill="#8A8C94">1.0</text><text x="222" y="127.0" font-family="ui-monospace,SFMono-Regular,Menlo,Consolas,monospace" font-size="12" text-anchor="end" fill="#56585F">gateway.refusal</text><line x1="350.5" y1="123.0" x2="714.2" y2="123.0" stroke="#A9ADB8" stroke-width="2"/><circle cx="350.5" cy="123.0" r="4.5" fill="#A9ADB8"/><circle cx="714.2" cy="123.0" r="5" fill="#3B6CFF"/><text x="726.1700000000001" y="127.0" font-family="ui-monospace,SFMono-Regular,Menlo,Consolas,monospace" font-size="11" fill="#8A8C94">0.88  n=77</text><text x="222" y="153.0" font-family="ui-monospace,SFMono-Regular,Menlo,Consolas,monospace" font-size="12" text-anchor="end" fill="#56585F">skill.review</text><line x1="363.5" y1="149.0" x2="651.8" y2="149.0" stroke="#A9ADB8" stroke-width="2"/><circle cx="363.5" cy="149.0" r="4.5" fill="#A9ADB8"/><circle cx="651.8" cy="149.0" r="5" fill="#3B6CFF"/><text x="663.8" y="153.0" font-family="ui-monospace,SFMono-Regular,Menlo,Consolas,monospace" font-size="11" fill="#8A8C94">0.79  n=335</text><text x="222" y="179.0" font-family="ui-monospace,SFMono-Regular,Menlo,Consolas,monospace" font-size="12" text-anchor="end" fill="#56585F">voice.addressee</text><line x1="420.7" y1="175.0" x2="694.6" y2="175.0" stroke="#A9ADB8" stroke-width="2"/><circle cx="420.7" cy="175.0" r="4.5" fill="#A9ADB8"/><circle cx="694.6" cy="175.0" r="5" fill="#3B6CFF"/><text x="706.5699999999999" y="179.0" font-family="ui-monospace,SFMono-Regular,Menlo,Consolas,monospace" font-size="11" fill="#8A8C94">0.86  n=138</text><text x="222" y="205.0" font-family="ui-monospace,SFMono-Regular,Menlo,Consolas,monospace" font-size="12" text-anchor="end" fill="#56585F">tool.risk</text><line x1="442.8" y1="201.0" x2="689.7" y2="201.0" stroke="#A9ADB8" stroke-width="2"/><circle cx="442.8" cy="201.0" r="4.5" fill="#A9ADB8"/><circle cx="689.7" cy="201.0" r="5" fill="#3B6CFF"/><text x="701.7399999999999" y="205.0" font-family="ui-monospace,SFMono-Regular,Menlo,Consolas,monospace" font-size="11" fill="#8A8C94">0.85  n=224</text><text x="222" y="231.0" font-family="ui-monospace,SFMono-Regular,Menlo,Consolas,monospace" font-size="12" text-anchor="end" fill="#56585F">tools.injection</text><line x1="521.5" y1="227.0" x2="748.0" y2="227.0" stroke="#A9ADB8" stroke-width="2"/><circle cx="521.5" cy="227.0" r="4.5" fill="#A9ADB8"/><circle cx="748.0" cy="227.0" r="5" fill="#3B6CFF"/><text x="759.98" y="231.0" font-family="ui-monospace,SFMono-Regular,Menlo,Consolas,monospace" font-size="11" fill="#8A8C94">0.93  n=102</text><text x="222" y="257.0" font-family="ui-monospace,SFMono-Regular,Menlo,Consolas,monospace" font-size="12" text-anchor="end" fill="#56585F">turn.tier</text><line x1="466.8" y1="253.0" x2="681.6" y2="253.0" stroke="#A9ADB8" stroke-width="2"/><circle cx="466.8" cy="253.0" r="4.5" fill="#A9ADB8"/><circle cx="681.6" cy="253.0" r="5" fill="#3B6CFF"/><text x="693.6200000000001" y="257.0" font-family="ui-monospace,SFMono-Regular,Menlo,Consolas,monospace" font-size="11" fill="#8A8C94">0.84  n=202</text><text x="222" y="283.0" font-family="ui-monospace,SFMono-Regular,Menlo,Consolas,monospace" font-size="12" text-anchor="end" fill="#56585F">compute.irreversible</text><line x1="386.3" y1="279.0" x2="589.6" y2="279.0" stroke="#A9ADB8" stroke-width="2"/><circle cx="386.3" cy="279.0" r="4.5" fill="#A9ADB8"/><circle cx="589.6" cy="279.0" r="5" fill="#3B6CFF"/><text x="601.5699999999999" y="283.0" font-family="ui-monospace,SFMono-Regular,Menlo,Consolas,monospace" font-size="11" fill="#8A8C94">0.71  n=217</text><text x="222" y="309.0" font-family="ui-monospace,SFMono-Regular,Menlo,Consolas,monospace" font-size="12" text-anchor="end" fill="#56585F">memory.session_split</text><line x1="531.4" y1="305.0" x2="719.1" y2="305.0" stroke="#A9ADB8" stroke-width="2"/><circle cx="531.4" cy="305.0" r="4.5" fill="#A9ADB8"/><circle cx="719.1" cy="305.0" r="5" fill="#3B6CFF"/><text x="731.1399999999999" y="309.0" font-family="ui-monospace,SFMono-Regular,Menlo,Consolas,monospace" font-size="11" fill="#8A8C94">0.89  n=82</text><text x="222" y="335.0" font-family="ui-monospace,SFMono-Regular,Menlo,Consolas,monospace" font-size="12" text-anchor="end" fill="#56585F">voice.backchannel</text><line x1="574.9" y1="331.0" x2="749.9" y2="331.0" stroke="#A9ADB8" stroke-width="2"/><circle cx="574.9" cy="331.0" r="4.5" fill="#A9ADB8"/><circle cx="749.9" cy="331.0" r="5" fill="#3B6CFF"/><text x="761.9399999999999" y="335.0" font-family="ui-monospace,SFMono-Regular,Menlo,Consolas,monospace" font-size="11" fill="#8A8C94">0.93  n=76</text><text x="222" y="361.0" font-family="ui-monospace,SFMono-Regular,Menlo,Consolas,monospace" font-size="12" text-anchor="end" fill="#56585F">voice.endpoint</text><line x1="540.6" y1="357.0" x2="698.3" y2="357.0" stroke="#A9ADB8" stroke-width="2"/><circle cx="540.6" cy="357.0" r="4.5" fill="#A9ADB8"/><circle cx="698.3" cy="357.0" r="5" fill="#3B6CFF"/><text x="710.2800000000001" y="361.0" font-family="ui-monospace,SFMono-Regular,Menlo,Consolas,monospace" font-size="11" fill="#8A8C94">0.86  n=222</text><text x="222" y="387.0" font-family="ui-monospace,SFMono-Regular,Menlo,Consolas,monospace" font-size="12" text-anchor="end" fill="#56585F">workflow.outcome</text><line x1="492.5" y1="383.0" x2="649.1" y2="383.0" stroke="#A9ADB8" stroke-width="2"/><circle cx="492.5" cy="383.0" r="4.5" fill="#A9ADB8"/><circle cx="649.1" cy="383.0" r="5" fill="#3B6CFF"/><text x="661.14" y="387.0" font-family="ui-monospace,SFMono-Regular,Menlo,Consolas,monospace" font-size="11" fill="#8A8C94">0.79  n=143</text><text x="222" y="413.0" font-family="ui-monospace,SFMono-Regular,Menlo,Consolas,monospace" font-size="12" text-anchor="end" fill="#56585F">ambient.salience</text><line x1="461.8" y1="409.0" x2="614.8" y2="409.0" stroke="#A9ADB8" stroke-width="2"/><circle cx="461.8" cy="409.0" r="4.5" fill="#A9ADB8"/><circle cx="614.8" cy="409.0" r="5" fill="#3B6CFF"/><text x="626.8399999999999" y="413.0" font-family="ui-monospace,SFMono-Regular,Menlo,Consolas,monospace" font-size="11" fill="#8A8C94">0.74  n=398</text><text x="222" y="439.0" font-family="ui-monospace,SFMono-Regular,Menlo,Consolas,monospace" font-size="12" text-anchor="end" fill="#56585F">scheduled.speak</text><line x1="541.9" y1="435.0" x2="692.3" y2="435.0" stroke="#A9ADB8" stroke-width="2"/><circle cx="541.9" cy="435.0" r="4.5" fill="#A9ADB8"/><circle cx="692.3" cy="435.0" r="5" fill="#3B6CFF"/><text x="704.3299999999999" y="439.0" font-family="ui-monospace,SFMono-Regular,Menlo,Consolas,monospace" font-size="11" fill="#8A8C94">0.85  n=135</text><text x="222" y="465.0" font-family="ui-monospace,SFMono-Regular,Menlo,Consolas,monospace" font-size="12" text-anchor="end" fill="#56585F">ambient.react</text><line x1="396.0" y1="461.0" x2="546.0" y2="461.0" stroke="#A9ADB8" stroke-width="2"/><circle cx="396.0" cy="461.0" r="4.5" fill="#A9ADB8"/><circle cx="546.0" cy="461.0" r="5" fill="#3B6CFF"/><text x="558.03" y="465.0" font-family="ui-monospace,SFMono-Regular,Menlo,Consolas,monospace" font-size="11" fill="#8A8C94">0.64  n=70</text><text x="222" y="491.0" font-family="ui-monospace,SFMono-Regular,Menlo,Consolas,monospace" font-size="12" text-anchor="end" fill="#56585F">task.route</text><line x1="590.7" y1="487.0" x2="730.7" y2="487.0" stroke="#A9ADB8" stroke-width="2"/><circle cx="590.7" cy="487.0" r="4.5" fill="#A9ADB8"/><circle cx="730.7" cy="487.0" r="5" fill="#3B6CFF"/><text x="742.6899999999998" y="491.0" font-family="ui-monospace,SFMono-Regular,Menlo,Consolas,monospace" font-size="11" fill="#8A8C94">0.91  n=75</text><text x="222" y="517.0" font-family="ui-monospace,SFMono-Regular,Menlo,Consolas,monospace" font-size="12" text-anchor="end" fill="#56585F">memory.triage</text><line x1="521.3" y1="513.0" x2="652.6" y2="513.0" stroke="#A9ADB8" stroke-width="2"/><circle cx="521.3" cy="513.0" r="4.5" fill="#A9ADB8"/><circle cx="652.6" cy="513.0" r="5" fill="#3B6CFF"/><text x="664.5699999999999" y="517.0" font-family="ui-monospace,SFMono-Regular,Menlo,Consolas,monospace" font-size="11" fill="#8A8C94">0.80  n=288</text><text x="222" y="543.0" font-family="ui-monospace,SFMono-Regular,Menlo,Consolas,monospace" font-size="12" text-anchor="end" fill="#56585F">turn.toolsets</text><line x1="606.0" y1="539.0" x2="734.5" y2="539.0" stroke="#A9ADB8" stroke-width="2"/><circle cx="606.0" cy="539.0" r="4.5" fill="#A9ADB8"/><circle cx="734.5" cy="539.0" r="5" fill="#3B6CFF"/><text x="746.47" y="543.0" font-family="ui-monospace,SFMono-Regular,Menlo,Consolas,monospace" font-size="11" fill="#8A8C94">0.91  n=398</text><text x="222" y="569.0" font-family="ui-monospace,SFMono-Regular,Menlo,Consolas,monospace" font-size="12" text-anchor="end" fill="#56585F">memory.preference</text><line x1="545.5" y1="565.0" x2="659.7" y2="565.0" stroke="#A9ADB8" stroke-width="2"/><circle cx="545.5" cy="565.0" r="4.5" fill="#A9ADB8"/><circle cx="659.7" cy="565.0" r="5" fill="#3B6CFF"/><text x="671.7099999999999" y="569.0" font-family="ui-monospace,SFMono-Regular,Menlo,Consolas,monospace" font-size="11" fill="#8A8C94">0.81  n=190</text><text x="24" y="604" font-family="ui-sans-serif,system-ui,-apple-system,'Segoe UI',Helvetica,Arial,sans-serif" font-size="11.5" fill="#8A8C94">n is the number of untied decisions at each site.</text></svg>